<svg width="512" height="512" viewBox="0 0 512 512" xmlns="http://www.w3.org/2000/svg">
  <rect width="512" height="512" rx="64" fill="#E89B6B"/>
  <circle cx="128" cy="128" r="32" fill="#FFFFFF"/>
  <circle cx="384" cy="128" r="32" fill="#FFFFFF"/>
  <path d="M144 192c24 0 44-20 44-44s-20-44-44-44-44 20-44 44 20 44 44 44z" fill="#F49D72"/>
  
  <!-- Checkerboard pattern -->
  <rect x="128" y="192" width="256" height="256" fill="#AECDF0"/>
  <rect x="128" y="192" width="128" height="128" fill="#83AAD9"/>
  <rect x="256" y="320" width="128" height="128" fill="#83AAD9"/>
  
  <!-- Circles in checkerboard -->
  <circle cx="192" cy="256" r="32" fill="#FFB68D"/>
  <circle cx="320" cy="256" r="32" fill="#FFB68D"/>
  <circle cx="192" cy="384" r="32" fill="#FFB68D"/>
  <circle cx="320" cy="384" r="32" fill="#FFB68D"/>
  
  <!-- Eyes -->
  <circle cx="256" cy="96" r="12" fill="#FFFFFF"/>
  <circle cx="288" cy="96" r="12" fill="#FFFFFF"/>
  <circle cx="256" cy="96" r="6" fill="#3A3A3A"/>
  <circle cx="288" cy="96" r="6" fill="#3A3A3A"/>
  
  <!-- Smile -->
  <path d="M264 112c8 0 16 4 24 0" stroke="#3A3A3A" stroke-width="2" stroke-linecap="round"/>
</svg>
